# xmcd CD database file
#
# Track frame offsets:
#	150
#	3147
#	18137
#	36670
#	57959
#	64762
#	81744
#	99725
#	113670
#	122611
#	138000
#	154820
#	176709
#	196820
#
# Disc length: 2704 seconds
#
# Revision: 1
# Processed by: cddbd v1.5.2PL0 Copyright (c) Steve Scherf et al.
# Submitted via: CDex 1.70beta2
#
DISCID=b50a8e0e
DTITLE=MUNEHIRO - Limited
DYEAR=2007
DGENRE=R&B
TTITLE0=It's TIME - Intro -
TTITLE1=Musick
TTITLE2=シンプルアンサー feat.Shock Eye
TTITLE3=最後の夜
TTITLE4=女ノ秘言
TTITLE5=touch me...
TTITLE6=Sweet and Bitteer feat.BOY-KEN
TTITLE7=祭
TTITLE8=女ノ戯言
TTITLE9=輝くオンナ
TTITLE10=Bird
TTITLE11=PUZZLE
TTITLE12=LIMITED
TTITLE13=フィナーレ - Outro -
EXTD=YEAR: 2007
EXTT0=
EXTT1=
EXTT2=
EXTT3=
EXTT4=
EXTT5=
EXTT6=
EXTT7=
EXTT8=
EXTT9=
EXTT10=
EXTT11=
EXTT12=
EXTT13=
PLAYORDER=
